# Blender 4.4.3
# www.blender.org
mtllib thunder_mesh.mtl
o mesh
v -1.122564 0.000000 1.122564
v 1.122564 0.000000 1.122564
v -1.122564 0.000000 -1.122564
v 1.122564 0.000000 -1.122564
v -0.975054 -0.019983 0.083067
v 1.115450 -0.019983 0.061012
v 0.289543 15.423973 2.226320
v 2.096380 15.423973 1.161077
v 0.557301 14.458726 2.254311
v 0.873296 13.493479 1.913523
v 1.078593 12.528231 1.504764
v 1.013071 11.562984 1.213649
v 0.728923 10.597737 1.186609
v 0.123148 9.632488 1.341673
v -1.131849 8.667241 1.487026
v -2.337748 7.701996 1.363981
v -3.140656 6.736747 1.172765
v -3.512332 5.771499 0.943926
v -3.248268 4.806252 0.745138
v -2.414588 3.841004 0.572083
v -1.213981 2.875756 0.395553
v -0.516792 1.910507 0.250469
v -0.723715 0.945264 0.159392
v 1.608734 0.945264 0.084071
v 2.162345 1.910507 0.080181
v 2.116256 2.875756 0.110818
v 1.159075 3.841003 0.293797
v 0.017545 4.806252 0.570384
v -0.448450 5.771499 0.783109
v -0.214210 6.736747 0.883949
v 0.595960 7.701994 0.808591
v 1.856439 8.667240 0.336713
v 2.571416 9.632488 -0.150872
v 2.991411 10.597736 -0.619472
v 3.066890 11.562984 -0.919341
v 2.731813 12.528230 -0.868648
v 2.442681 13.493479 -0.306573
v 2.073256 14.458726 0.467153
v 0.000000 0.000000 -0.755408
v -0.000000 2.000000 -2.928763
v 0.147373 0.000000 -0.740893
v 0.571373 2.000000 -2.872487
v 0.289082 0.000000 -0.697906
v 1.120789 2.000000 -2.705824
v 0.419682 0.000000 -0.628098
v 1.627133 2.000000 -2.435177
v 0.534154 0.000000 -0.534154
v 2.070948 2.000000 -2.070948
v 0.628098 0.000000 -0.419682
v 2.435177 2.000000 -1.627133
v 0.697906 0.000000 -0.289082
v 2.705824 2.000000 -1.120789
v 0.740893 0.000000 -0.147373
v 2.872487 2.000000 -0.571373
v 0.755408 0.000000 -0.000000
v 3.074989 2.000000 -0.087333
v 0.740893 0.000000 0.147373
v 3.015904 2.000000 0.512568
v 0.697906 0.000000 0.289082
v 2.840919 2.000000 1.089415
v 0.628098 0.000000 0.419682
v 2.556760 2.000000 1.621039
v 0.534154 0.000000 0.534154
v 2.174345 2.000000 2.087013
v 0.419682 0.000000 0.628098
v 1.708372 2.000000 2.469427
v 0.289082 0.000000 0.697906
v 1.176747 2.000000 2.753586
v 0.147373 0.000000 0.740893
v 0.599900 2.000000 2.928571
v 0.000000 0.000000 0.755408
v -0.000000 2.000000 2.987656
v -0.147373 0.000000 0.740893
v -0.599901 2.000000 2.928571
v -0.289082 0.000000 0.697906
v -1.176747 2.000000 2.753586
v -0.419682 0.000000 0.628098
v -1.708372 2.000000 2.469427
v -0.534154 0.000000 0.534154
v -2.174345 2.000000 2.087013
v -0.628098 0.000000 0.419682
v -2.556760 2.000000 1.621039
v -0.697906 0.000000 0.289082
v -2.840919 2.000000 1.089415
v -0.740893 0.000000 0.147373
v -3.015904 2.000000 0.512568
v -0.755408 0.000000 -0.000000
v -3.074989 2.000000 -0.087333
v -0.740893 0.000000 -0.147373
v -2.872487 2.000000 -0.571373
v -0.697906 0.000000 -0.289082
v -2.705824 2.000000 -1.120789
v -0.628098 0.000000 -0.419682
v -2.435177 2.000000 -1.627133
v -0.534154 0.000000 -0.534154
v -2.070948 2.000000 -2.070948
v -0.419682 0.000000 -0.628098
v -1.627133 2.000000 -2.435177
v -0.289082 0.000000 -0.697906
v -1.120789 2.000000 -2.705824
v -0.147373 0.000000 -0.740893
v -0.571373 2.000000 -2.872487
vn -0.0000 1.0000 -0.0000
vn 0.0220 -0.0599 0.9980
vn 0.6411 -0.1764 0.7469
vn 0.7045 -0.1356 0.6967
vn 0.7998 -0.0737 0.5957
vn 0.7994 -0.0489 0.5988
vn 0.7248 -0.0130 0.6889
vn 0.6142 -0.0327 0.7885
vn 0.4765 -0.1171 0.8713
vn 0.3097 -0.1713 0.9353
vn 0.1733 -0.1764 0.9690
vn 0.0951 -0.1857 0.9780
vn 0.0624 -0.1898 0.9798
vn 0.0562 -0.1809 0.9819
vn 0.0688 -0.1471 0.9867
vn 0.0794 -0.0853 0.9932
vn 0.0635 -0.0628 0.9960
vn 0.0335 -0.0617 0.9975
vn 0.0396 -0.0627 0.9972
vn 0.0645 -0.0627 0.9959
vn 0.0772 -0.0723 0.9944
vn 0.0773 -0.1101 0.9909
vn 0.0611 -0.1710 0.9834
vn 0.0621 -0.1898 0.9799
vn 0.1155 -0.1813 0.9766
vn 0.2386 -0.1771 0.9548
vn 0.3990 -0.1559 0.9036
vn 0.5351 -0.0715 0.8417
vn 0.6393 -0.0280 0.7684
vn 0.7250 -0.0129 0.6886
vn 0.7889 -0.0312 0.6137
vn 0.8089 -0.0766 0.5829
vn 0.7453 -0.1063 0.6582
vn -0.0000 0.7358 0.6772
vn -0.1321 0.7358 0.6641
vn -0.2591 0.7358 0.6256
vn -0.3762 0.7358 0.5630
vn -0.4788 0.7358 0.4788
vn -0.5630 0.7358 0.3762
vn -0.6256 0.7358 0.2591
vn -0.6439 0.7362 0.2082
vn -0.6435 0.7363 0.2090
vn -0.6523 0.7541 0.0758
vn -0.6526 0.7545 0.0697
vn -0.6429 0.7549 -0.1291
vn -0.6434 0.7550 -0.1269
vn -0.6079 0.7526 -0.2531
vn -0.6087 0.7527 -0.2510
vn -0.5489 0.7505 -0.3681
vn -0.5500 0.7505 -0.3664
vn -0.4682 0.7485 -0.4695
vn -0.4694 0.7486 -0.4683
vn -0.3688 0.7470 -0.5532
vn -0.3699 0.7470 -0.5525
vn -0.2545 0.7458 -0.6157
vn -0.2553 0.7458 -0.6153
vn -0.1299 0.7450 -0.6543
vn -0.1303 0.7450 -0.6542
vn -0.0000 0.7448 -0.6673
vn 0.1299 0.7450 -0.6543
vn 0.1303 0.7450 -0.6542
vn 0.2545 0.7458 -0.6157
vn 0.2553 0.7458 -0.6153
vn 0.3688 0.7470 -0.5532
vn 0.3699 0.7470 -0.5525
vn 0.4682 0.7485 -0.4695
vn 0.4694 0.7486 -0.4683
vn 0.5489 0.7505 -0.3681
vn 0.5500 0.7505 -0.3664
vn 0.6079 0.7526 -0.2531
vn 0.6087 0.7527 -0.2510
vn 0.6429 0.7549 -0.1291
vn 0.6434 0.7550 -0.1269
vn 0.6523 0.7541 0.0758
vn 0.6526 0.7545 0.0697
vn 0.6439 0.7362 0.2082
vn 0.6435 0.7363 0.2090
vn 0.6256 0.7358 0.2591
vn 0.5630 0.7358 0.3762
vn 0.4788 0.7358 0.4788
vn 0.3762 0.7358 0.5630
vn 0.2591 0.7358 0.6256
vn 0.1321 0.7358 0.6641
vt 0.000000 0.000000
vt 1.000000 0.000000
vt 1.000000 1.000000
vt 0.000000 1.000000
vt 0.000000 0.937500
vt 1.000000 0.937500
vt 1.000000 0.062500
vt 0.000000 0.062500
vt 1.000000 0.125000
vt 0.000000 0.125000
vt 1.000000 0.187500
vt 0.000000 0.187500
vt 1.000000 0.250000
vt 0.000000 0.250000
vt 1.000000 0.312500
vt 0.000000 0.312500
vt 1.000000 0.375000
vt 0.000000 0.375000
vt 1.000000 0.437500
vt 0.000000 0.437500
vt 1.000000 0.500000
vt 0.000000 0.500000
vt 1.000000 0.562500
vt 0.000000 0.562500
vt 1.000000 0.625000
vt 0.000000 0.625000
vt 1.000000 0.687500
vt 0.000000 0.687500
vt 1.000000 0.750000
vt 0.000000 0.750000
vt 1.000000 0.812500
vt 0.000000 0.812500
vt 1.000000 0.875000
vt 0.000000 0.875000
vt 0.968750 0.000000
vt 0.968750 1.000000
vt 0.937500 0.000000
vt 0.937500 1.000000
vt 0.906250 0.000000
vt 0.906250 1.000000
vt 0.875000 0.000000
vt 0.875000 1.000000
vt 0.843750 0.000000
vt 0.843750 1.000000
vt 0.812500 0.000000
vt 0.812500 1.000000
vt 0.781250 0.000000
vt 0.781250 1.000000
vt 0.750000 0.000000
vt 0.750000 1.000000
vt 0.718750 0.000000
vt 0.718750 1.000000
vt 0.687500 0.000000
vt 0.687500 1.000000
vt 0.656250 0.000000
vt 0.656250 1.000000
vt 0.625000 0.000000
vt 0.625000 1.000000
vt 0.593750 0.000000
vt 0.593750 1.000000
vt 0.562500 0.000000
vt 0.562500 1.000000
vt 0.531250 0.000000
vt 0.531250 1.000000
vt 0.500000 0.000000
vt 0.500000 1.000000
vt 0.468750 0.000000
vt 0.468750 1.000000
vt 0.437500 0.000000
vt 0.437500 1.000000
vt 0.406250 0.000000
vt 0.406250 1.000000
vt 0.375000 0.000000
vt 0.375000 1.000000
vt 0.343750 0.000000
vt 0.343750 1.000000
vt 0.312500 0.000000
vt 0.312500 1.000000
vt 0.281250 0.000000
vt 0.281250 1.000000
vt 0.250000 0.000000
vt 0.250000 1.000000
vt 0.218750 0.000000
vt 0.218750 1.000000
vt 0.187500 0.000000
vt 0.187500 1.000000
vt 0.156250 0.000000
vt 0.156250 1.000000
vt 0.125000 0.000000
vt 0.125000 1.000000
vt 0.093750 0.000000
vt 0.093750 1.000000
vt 0.062500 0.000000
vt 0.062500 1.000000
vt 0.031250 0.000000
vt 0.031250 1.000000
s 1
usemtl Material.003
f 1/1/1 2/2/1 4/3/1 3/4/1
usemtl Material.002
f 9/5/4 38/6/33 8/3/3 7/4/3
f 5/1/2 6/2/2 24/7/19 23/8/18
f 23/8/18 24/7/19 25/9/20 22/10/17
f 22/10/17 25/9/20 26/11/21 21/12/16
f 21/12/16 26/11/21 27/13/22 20/14/15
f 20/14/15 27/13/22 28/15/23 19/16/14
f 19/16/14 28/15/23 29/17/24 18/18/13
f 18/18/13 29/17/24 30/19/25 17/20/12
f 17/20/12 30/19/25 31/21/26 16/22/11
f 16/22/11 31/21/26 32/23/27 15/24/10
f 15/24/10 32/23/27 33/25/28 14/26/9
f 14/26/9 33/25/28 34/27/29 13/28/8
f 13/28/8 34/27/29 35/29/30 12/30/7
f 12/30/7 35/29/30 36/31/31 11/32/6
f 11/32/6 36/31/31 37/33/32 10/34/5
f 10/34/5 37/33/32 38/6/33 9/5/4
usemtl Material.001
f 39/2/34 41/35/35 42/36/35 40/3/34
f 41/35/35 43/37/36 44/38/36 42/36/35
f 43/37/36 45/39/37 46/40/37 44/38/36
f 45/39/37 47/41/38 48/42/38 46/40/37
f 47/41/38 49/43/39 50/44/39 48/42/38
f 49/43/39 51/45/40 52/46/40 50/44/39
f 51/45/40 53/47/41 54/48/42 52/46/40
f 53/47/41 55/49/43 56/50/44 54/48/42
f 55/49/43 57/51/45 58/52/46 56/50/44
f 57/51/45 59/53/47 60/54/48 58/52/46
f 59/53/47 61/55/49 62/56/50 60/54/48
f 61/55/49 63/57/51 64/58/52 62/56/50
f 63/57/51 65/59/53 66/60/54 64/58/52
f 65/59/53 67/61/55 68/62/56 66/60/54
f 67/61/55 69/63/57 70/64/58 68/62/56
f 69/63/57 71/65/59 72/66/59 70/64/58
f 71/65/59 73/67/60 74/68/61 72/66/59
f 73/67/60 75/69/62 76/70/63 74/68/61
f 75/69/62 77/71/64 78/72/65 76/70/63
f 77/71/64 79/73/66 80/74/67 78/72/65
f 79/73/66 81/75/68 82/76/69 80/74/67
f 81/75/68 83/77/70 84/78/71 82/76/69
f 83/77/70 85/79/72 86/80/73 84/78/71
f 85/79/72 87/81/74 88/82/75 86/80/73
f 87/81/74 89/83/76 90/84/77 88/82/75
f 89/83/76 91/85/78 92/86/78 90/84/77
f 91/85/78 93/87/79 94/88/79 92/86/78
f 93/87/79 95/89/80 96/90/80 94/88/79
f 95/89/80 97/91/81 98/92/81 96/90/80
f 97/91/81 99/93/82 100/94/82 98/92/81
f 99/93/82 101/95/83 102/96/83 100/94/82
f 101/95/83 39/1/34 40/4/34 102/96/83
