# Blender 4.0.2
# www.blender.org
mtllib slash_thing.mtl
o BezierCurve
v -0.902300 0.058314 -0.073340
v -1.031817 0.104769 -0.029833
v -1.120736 0.123623 -0.000638
v -1.191885 0.100949 0.021212
v -1.282305 0.051111 0.048140
v -1.360012 0.000000 0.070928
v -0.859845 0.051184 0.072111
v -0.972591 0.090788 0.130785
v -1.049928 0.107912 0.170721
v -1.111582 0.086511 0.201823
v -1.189809 0.039771 0.240874
v -1.256986 -0.008617 0.274235
v -0.794516 0.046579 0.208193
v -0.888710 0.079950 0.278296
v -0.953245 0.095632 0.326302
v -1.004440 0.075749 0.364300
v -1.069255 0.032424 0.412361
v -1.124854 -0.012404 0.453568
v -0.708000 0.043870 0.330646
v -0.782385 0.071594 0.408450
v -0.833273 0.086037 0.461879
v -0.873395 0.067839 0.504464
v -0.924052 0.028147 0.558494
v -0.967448 -0.012932 0.604888
v -0.602095 0.042397 0.435317
v -0.655937 0.075491 0.516422
v -0.692703 0.078373 0.573122
v -0.721455 0.061961 0.617994
v -0.757627 0.026030 0.674990
v -0.788557 -0.011189 0.723960
v -0.478252 0.041488 0.518293
v -0.511587 0.071855 0.599242
v -0.534281 0.071875 0.655703
v -0.551802 0.057290 0.700487
v -0.573714 0.025172 0.757387
v -0.592397 -0.008144 0.806280
v -0.337266 0.040460 0.575545
v -0.351328 0.067978 0.652039
v -0.360825 0.065769 0.705300
v -0.367901 0.052995 0.747592
v -0.376603 0.024665 0.801319
v -0.383959 0.000000 0.847489
v -0.179372 0.038589 0.602292
v -0.176979 0.063049 0.670329
v -0.175231 0.059278 0.717627
v -0.173483 0.048244 0.755235
v -0.171068 0.023615 0.803007
v -0.168911 0.000000 0.844053
v -0.003962 0.035062 0.592296
v 0.009946 0.056219 0.649086
v 0.019543 0.051619 0.688480
v 0.027382 0.042225 0.719904
v 0.037434 0.021169 0.759832
v 0.046109 0.000000 0.794142
v 0.175273 0.030956 0.541161
v 0.196448 0.049830 0.588889
v 0.210991 0.045639 0.621917
v 0.222648 0.037276 0.648390
v 0.237473 0.018505 0.682050
v 0.250218 0.000000 0.710985
v 0.345064 0.024677 0.461756
v 0.370154 0.041191 0.500295
v 0.387365 0.037977 0.526824
v 0.401085 0.030607 0.548263
v 0.418493 0.014074 0.575545
v 0.433442 0.000000 0.599019
v 0.502194 0.017008 0.356381
v 0.528656 0.031151 0.386062
v 0.546804 0.029459 0.406284
v 0.561264 0.023070 0.422837
v 0.579606 0.008761 0.443910
v 0.644250 0.008762 0.227306
v 0.669908 0.015951 0.248312
v 0.687511 0.020903 0.263316
v 0.701557 0.015503 0.275365
v 0.719385 0.000000 0.290681
v 0.858687 0.000000 0.034237
v 0.858781 0.002597 0.036816
v 0.860095 0.006075 0.038711
v 0.861907 0.006924 0.040227
v 0.870071 0.000000 0.042153
v -0.902300 -0.058314 -0.073340
v -1.031817 -0.104769 -0.029833
v -1.120736 -0.123623 -0.000638
v -1.191885 -0.100949 0.021212
v -1.282305 -0.051111 0.048140
v -0.859845 -0.051184 0.072111
v -0.972591 -0.090788 0.130785
v -1.049928 -0.107912 0.170721
v -1.111582 -0.086511 0.201823
v -1.189809 -0.039771 0.240874
v -1.256986 0.008617 0.274235
v -0.794516 -0.046579 0.208193
v -0.888710 -0.079950 0.278296
v -0.953245 -0.095632 0.326302
v -1.004440 -0.075749 0.364300
v -1.069255 -0.032424 0.412361
v -1.124854 0.012404 0.453568
v -0.708000 -0.043870 0.330646
v -0.782385 -0.071594 0.408450
v -0.833273 -0.086037 0.461879
v -0.873395 -0.067839 0.504464
v -0.924052 -0.028147 0.558494
v -0.967448 0.012932 0.604888
v -0.602095 -0.042397 0.435317
v -0.655937 -0.075491 0.516422
v -0.692703 -0.078373 0.573122
v -0.721455 -0.061961 0.617994
v -0.757627 -0.026030 0.674990
v -0.788557 0.011189 0.723960
v -0.478252 -0.041488 0.518293
v -0.511587 -0.071855 0.599242
v -0.534281 -0.071875 0.655703
v -0.551802 -0.057290 0.700487
v -0.573714 -0.025172 0.757387
v -0.592397 0.008144 0.806280
v -0.337266 -0.040460 0.575545
v -0.351328 -0.067978 0.652039
v -0.360825 -0.065769 0.705300
v -0.367901 -0.052995 0.747592
v -0.376603 -0.024665 0.801319
v -0.179372 -0.038589 0.602292
v -0.176979 -0.063049 0.670329
v -0.175231 -0.059278 0.717627
v -0.173483 -0.048244 0.755235
v -0.171068 -0.023615 0.803007
v -0.003962 -0.035062 0.592296
v 0.009946 -0.056219 0.649086
v 0.019543 -0.051619 0.688480
v 0.027382 -0.042225 0.719904
v 0.037434 -0.021169 0.759832
v 0.175273 -0.030956 0.541161
v 0.196448 -0.049830 0.588889
v 0.210991 -0.045639 0.621917
v 0.222648 -0.037276 0.648390
v 0.237473 -0.018505 0.682050
v 0.345064 -0.024677 0.461756
v 0.370154 -0.041191 0.500295
v 0.387365 -0.037977 0.526824
v 0.401085 -0.030607 0.548263
v 0.418493 -0.014074 0.575545
v 0.502194 -0.017008 0.356381
v 0.528656 -0.031151 0.386062
v 0.546804 -0.029459 0.406284
v 0.561264 -0.023070 0.422837
v 0.579606 -0.008761 0.443910
v 0.644250 -0.008762 0.227306
v 0.669908 -0.015951 0.248312
v 0.687511 -0.020903 0.263316
v 0.701557 -0.015503 0.275365
v 0.858781 -0.002597 0.036816
v 0.860095 -0.006075 0.038711
v 0.861907 -0.006924 0.040227
vn 0.2648 0.9641 -0.0177
vn 0.2506 0.9672 -0.0427
vn 0.3001 0.9516 -0.0660
vn 0.3192 0.9468 -0.0407
vn -0.0266 0.9944 0.1023
vn -0.0243 0.9949 0.0974
vn -0.3302 0.9180 0.2199
vn -0.3152 0.9184 0.2392
vn -0.4407 0.8584 0.2626
vn -0.4215 0.8588 0.2912
vn -0.8637 -0.0000 0.5041
vn -0.4515 0.8387 0.3045
vn 0.2206 0.9713 -0.0887
vn 0.2563 0.9599 -0.1133
vn -0.0189 0.9959 0.0886
vn -0.2812 0.9187 0.2774
vn -0.3772 0.8586 0.3473
vn -0.4050 0.8380 0.3656
vn 0.1699 0.9769 -0.1296
vn 0.2108 0.9621 -0.1728
vn -0.0286 0.9955 0.0906
vn -0.2370 0.9195 0.3136
vn -0.3188 0.8595 0.3995
vn -0.3430 0.8390 0.4224
vn 0.1210 0.9826 -0.1411
vn 0.1857 0.9523 -0.2420
vn -0.0406 0.9918 0.1210
vn -0.1811 0.9208 0.3455
vn -0.2454 0.8612 0.4451
vn -0.2650 0.8408 0.4721
vn 0.0898 0.9871 -0.1326
vn 0.1574 0.9444 -0.2888
vn -0.0281 0.9874 0.1558
vn -0.1129 0.9224 0.3693
vn -0.1571 0.8681 0.4709
vn -0.1722 0.8519 0.4946
vn 0.0586 0.9899 -0.1289
vn 0.0978 0.9423 -0.3201
vn 0.0014 0.9846 0.1746
vn -0.0342 0.9242 0.3804
vn -0.0531 0.8780 0.4757
vn -0.1231 -0.0000 0.9924
vn 0.0351 0.9921 -0.1202
vn 0.0325 0.9406 -0.3380
vn 0.0421 0.9817 0.1855
vn 0.0497 0.9257 0.3750
vn 0.0563 0.8784 0.4745
vn 0.1152 -0.0000 0.9933
vn 0.0124 0.9936 -0.1120
vn -0.0375 0.9400 -0.3392
vn 0.0791 0.9796 0.1847
vn 0.1208 0.9268 0.3556
vn 0.1477 0.8749 0.4613
vn 0.3003 -0.0000 0.9538
vn -0.0060 0.9936 -0.1129
vn -0.0954 0.9396 -0.3289
vn 0.1106 0.9794 0.1691
vn 0.1792 0.9277 0.3275
vn 0.2192 0.8791 0.4233
vn 0.4521 -0.0000 0.8919
vn -0.0206 0.9924 -0.1213
vn -0.1370 0.9398 -0.3131
vn 0.1375 0.9806 0.1400
vn 0.2334 0.9274 0.2924
vn 0.4426 0.6840 0.5798
vn 0.5957 -0.0000 0.8032
vn -0.0526 0.9880 -0.1451
vn -0.1554 0.9487 -0.2754
vn 0.1332 0.9875 0.0846
vn 0.2868 0.9218 0.2608
vn 0.7168 -0.0788 0.6928
vn 0.9889 -0.0000 -0.1486
vn 0.7790 -0.0000 0.6270
vn -0.1323 0.9716 -0.1963
vn -0.1586 0.9594 -0.2333
vn 0.0609 0.9981 -0.0102
vn 0.3397 0.9122 0.2292
vn 0.1164 0.8390 -0.5315
vn 0.3054 -0.0000 -0.9522
vn 0.2222 0.8675 -0.4451
vn 0.4742 0.8627 -0.1758
vn 0.2648 -0.9641 -0.0177
vn 0.3192 -0.9468 -0.0407
vn 0.3001 -0.9516 -0.0660
vn 0.2506 -0.9672 -0.0427
vn -0.0266 -0.9944 0.1023
vn -0.0243 -0.9949 0.0974
vn -0.3302 -0.9180 0.2199
vn -0.3152 -0.9184 0.2392
vn -0.4407 -0.8584 0.2626
vn -0.4215 -0.8588 0.2912
vn -0.4515 -0.8387 0.3045
vn 0.2563 -0.9599 -0.1133
vn 0.2206 -0.9713 -0.0887
vn -0.0189 -0.9959 0.0886
vn -0.2812 -0.9187 0.2774
vn -0.3772 -0.8586 0.3473
vn -0.4050 -0.8380 0.3656
vn 0.2108 -0.9621 -0.1728
vn 0.1699 -0.9769 -0.1296
vn -0.0286 -0.9955 0.0906
vn -0.2370 -0.9195 0.3136
vn -0.3188 -0.8595 0.3995
vn -0.3430 -0.8390 0.4224
vn 0.1857 -0.9523 -0.2420
vn 0.1210 -0.9826 -0.1411
vn -0.0406 -0.9918 0.1210
vn -0.1811 -0.9208 0.3455
vn -0.2454 -0.8612 0.4451
vn -0.2650 -0.8408 0.4721
vn 0.1574 -0.9444 -0.2888
vn 0.0898 -0.9871 -0.1326
vn -0.0281 -0.9874 0.1558
vn -0.1129 -0.9224 0.3693
vn -0.1571 -0.8681 0.4709
vn -0.1722 -0.8519 0.4946
vn 0.0978 -0.9423 -0.3201
vn 0.0586 -0.9899 -0.1289
vn 0.0014 -0.9846 0.1746
vn -0.0342 -0.9242 0.3804
vn -0.0531 -0.8780 0.4757
vn 0.0325 -0.9406 -0.3380
vn 0.0351 -0.9921 -0.1202
vn 0.0421 -0.9817 0.1855
vn 0.0497 -0.9257 0.3750
vn 0.0563 -0.8784 0.4745
vn -0.0375 -0.9400 -0.3392
vn 0.0124 -0.9936 -0.1120
vn 0.0791 -0.9796 0.1847
vn 0.1208 -0.9268 0.3556
vn 0.1477 -0.8749 0.4613
vn -0.0954 -0.9396 -0.3289
vn -0.0060 -0.9936 -0.1129
vn 0.1106 -0.9794 0.1691
vn 0.1792 -0.9277 0.3275
vn 0.2192 -0.8791 0.4233
vn -0.1370 -0.9398 -0.3131
vn -0.0206 -0.9924 -0.1213
vn 0.1375 -0.9806 0.1400
vn 0.2334 -0.9274 0.2924
vn 0.4426 -0.6840 0.5798
vn -0.1554 -0.9487 -0.2754
vn -0.0526 -0.9880 -0.1451
vn 0.1332 -0.9875 0.0846
vn 0.2868 -0.9218 0.2608
vn 0.7168 0.0788 0.6928
vn -0.1586 -0.9594 -0.2333
vn -0.1323 -0.9716 -0.1963
vn 0.0609 -0.9981 -0.0102
vn 0.3397 -0.9122 0.2292
vn 0.1164 -0.8390 -0.5315
vn 0.2222 -0.8675 -0.4451
vn 0.4742 -0.8627 -0.1758
vt 0.011723 0.841336
vt 0.085806 0.841336
vt 0.085806 0.832731
vt 0.011723 0.832731
vt 0.011723 0.849941
vt 0.085806 0.849941
vt 0.011723 0.858546
vt 0.085806 0.858546
vt 0.011723 0.867151
vt 0.085806 0.867151
vt 0.011723 0.875756
vt 0.085806 0.875756
vt 0.159889 0.841336
vt 0.159889 0.832731
vt 0.159889 0.849941
vt 0.159889 0.858546
vt 0.159889 0.867151
vt 0.159889 0.875756
vt 0.233972 0.841336
vt 0.233972 0.832731
vt 0.233972 0.849941
vt 0.233972 0.858546
vt 0.233972 0.867151
vt 0.233972 0.875756
vt 0.308055 0.841336
vt 0.308055 0.832731
vt 0.308055 0.849941
vt 0.308055 0.858546
vt 0.308055 0.867151
vt 0.308055 0.875756
vt 0.382138 0.841336
vt 0.382138 0.832731
vt 0.382138 0.849941
vt 0.382138 0.858546
vt 0.382138 0.867151
vt 0.382138 0.875756
vt 0.456220 0.841336
vt 0.456220 0.832731
vt 0.456220 0.849941
vt 0.456220 0.858546
vt 0.456220 0.867151
vt 0.456220 0.875756
vt 0.530303 0.841336
vt 0.530303 0.832731
vt 0.530303 0.849941
vt 0.530303 0.858546
vt 0.530303 0.867151
vt 0.530303 0.875756
vt 0.604386 0.841336
vt 0.604386 0.832731
vt 0.604386 0.849941
vt 0.604386 0.858546
vt 0.604386 0.867151
vt 0.604386 0.875756
vt 0.678469 0.841336
vt 0.678469 0.832731
vt 0.678469 0.849941
vt 0.678469 0.858546
vt 0.678469 0.867151
vt 0.678469 0.875756
vt 0.752552 0.841336
vt 0.752552 0.832731
vt 0.752552 0.849941
vt 0.752552 0.858546
vt 0.752552 0.867151
vt 0.752552 0.875756
vt 0.826634 0.841336
vt 0.826634 0.832731
vt 0.826634 0.849941
vt 0.826634 0.858546
vt 0.826634 0.867151
vt 0.899900 0.913903
vt 0.899968 0.923275
vt 0.825337 0.923112
vt 0.824959 0.904870
vt 0.899968 0.905149
vt 0.900717 0.841336
vt 0.900717 0.832731
vt 0.900717 0.849941
vt 0.900717 0.858546
vt 0.900717 0.867151
vt 0.974800 0.841336
vt 0.974800 0.832731
vt 0.974800 0.849941
vt 0.974800 0.858546
vt 0.974800 0.867151
vt 0.975165 0.881292
vt 0.975314 0.887075
vt 0.900248 0.886451
vt 0.900535 0.881215
vt 0.922001 0.881566
s 1
usemtl Material.003
f 2/1/1 8/2/2 7/3/3 1/4/4
f 3/5/5 9/6/6 8/2/2 2/1/1
f 4/7/7 10/8/8 9/6/6 3/5/5
f 5/9/9 11/10/10 10/8/8 4/7/7
f 6/11/11 12/12/12 11/10/10 5/9/9
f 8/2/2 14/13/13 13/14/14 7/3/3
f 9/6/6 15/15/15 14/13/13 8/2/2
f 10/8/8 16/16/16 15/15/15 9/6/6
f 11/10/10 17/17/17 16/16/16 10/8/8
f 12/12/12 18/18/18 17/17/17 11/10/10
f 14/13/13 20/19/19 19/20/20 13/14/14
f 15/15/15 21/21/21 20/19/19 14/13/13
f 16/16/16 22/22/22 21/21/21 15/15/15
f 17/17/17 23/23/23 22/22/22 16/16/16
f 18/18/18 24/24/24 23/23/23 17/17/17
f 20/19/19 26/25/25 25/26/26 19/20/20
f 21/21/21 27/27/27 26/25/25 20/19/19
f 22/22/22 28/28/28 27/27/27 21/21/21
f 23/23/23 29/29/29 28/28/28 22/22/22
f 24/24/24 30/30/30 29/29/29 23/23/23
f 26/25/25 32/31/31 31/32/32 25/26/26
f 27/27/27 33/33/33 32/31/31 26/25/25
f 28/28/28 34/34/34 33/33/33 27/27/27
f 29/29/29 35/35/35 34/34/34 28/28/28
f 30/30/30 36/36/36 35/35/35 29/29/29
f 32/31/31 38/37/37 37/38/38 31/32/32
f 33/33/33 39/39/39 38/37/37 32/31/31
f 34/34/34 40/40/40 39/39/39 33/33/33
f 35/35/35 41/41/41 40/40/40 34/34/34
f 36/36/36 42/42/42 41/41/41 35/35/35
f 38/37/37 44/43/43 43/44/44 37/38/38
f 39/39/39 45/45/45 44/43/43 38/37/37
f 40/40/40 46/46/46 45/45/45 39/39/39
f 41/41/41 47/47/47 46/46/46 40/40/40
f 42/42/42 48/48/48 47/47/47 41/41/41
f 44/43/43 50/49/49 49/50/50 43/44/44
f 45/45/45 51/51/51 50/49/49 44/43/43
f 46/46/46 52/52/52 51/51/51 45/45/45
f 47/47/47 53/53/53 52/52/52 46/46/46
f 48/48/48 54/54/54 53/53/53 47/47/47
f 50/49/49 56/55/55 55/56/56 49/50/50
f 51/51/51 57/57/57 56/55/55 50/49/49
f 52/52/52 58/58/58 57/57/57 51/51/51
f 53/53/53 59/59/59 58/58/58 52/52/52
f 54/54/54 60/60/60 59/59/59 53/53/53
f 56/55/55 62/61/61 61/62/62 55/56/56
f 57/57/57 63/63/63 62/61/61 56/55/55
f 58/58/58 64/64/64 63/63/63 57/57/57
f 59/59/59 65/65/65 64/64/64 58/58/58
f 60/60/60 66/66/66 65/65/65 59/59/59
f 62/61/61 68/67/67 67/68/68 61/62/62
f 63/63/63 69/69/69 68/67/67 62/61/61
f 64/64/64 70/70/70 69/69/69 63/63/63
f 65/65/65 71/71/71 70/70/70 64/64/64
f 66/72/66 81/73/72 76/74/73 71/75/71 65/76/65
f 68/67/67 73/77/74 72/78/75 67/68/68
f 69/69/69 74/79/76 73/77/74 68/67/67
f 70/70/70 75/80/77 74/79/76 69/69/69
f 71/71/71 76/81/73 75/80/77 70/70/70
f 73/77/74 78/82/78 77/83/79 72/78/75
f 74/79/76 79/84/80 78/82/78 73/77/74
f 75/80/77 80/85/81 79/84/80 74/79/76
f 76/81/73 81/86/72 80/85/81 75/80/77
f 77/87/79 78/88/78 79/89/80 80/90/81 81/91/72
f 83/1/82 82/4/83 87/3/84 88/2/85
f 84/5/86 83/1/82 88/2/85 89/6/87
f 85/7/88 84/5/86 89/6/87 90/8/89
f 86/9/90 85/7/88 90/8/89 91/10/91
f 6/11/11 86/9/90 91/10/91 92/12/92
f 88/2/85 87/3/84 93/14/93 94/13/94
f 89/6/87 88/2/85 94/13/94 95/15/95
f 90/8/89 89/6/87 95/15/95 96/16/96
f 91/10/91 90/8/89 96/16/96 97/17/97
f 92/12/92 91/10/91 97/17/97 98/18/98
f 94/13/94 93/14/93 99/20/99 100/19/100
f 95/15/95 94/13/94 100/19/100 101/21/101
f 96/16/96 95/15/95 101/21/101 102/22/102
f 97/17/97 96/16/96 102/22/102 103/23/103
f 98/18/98 97/17/97 103/23/103 104/24/104
f 100/19/100 99/20/99 105/26/105 106/25/106
f 101/21/101 100/19/100 106/25/106 107/27/107
f 102/22/102 101/21/101 107/27/107 108/28/108
f 103/23/103 102/22/102 108/28/108 109/29/109
f 104/24/104 103/23/103 109/29/109 110/30/110
f 106/25/106 105/26/105 111/32/111 112/31/112
f 107/27/107 106/25/106 112/31/112 113/33/113
f 108/28/108 107/27/107 113/33/113 114/34/114
f 109/29/109 108/28/108 114/34/114 115/35/115
f 110/30/110 109/29/109 115/35/115 116/36/116
f 112/31/112 111/32/111 117/38/117 118/37/118
f 113/33/113 112/31/112 118/37/118 119/39/119
f 114/34/114 113/33/113 119/39/119 120/40/120
f 115/35/115 114/34/114 120/40/120 121/41/121
f 116/36/116 115/35/115 121/41/121 42/42/42
f 118/37/118 117/38/117 122/44/122 123/43/123
f 119/39/119 118/37/118 123/43/123 124/45/124
f 120/40/120 119/39/119 124/45/124 125/46/125
f 121/41/121 120/40/120 125/46/125 126/47/126
f 42/42/42 121/41/121 126/47/126 48/48/48
f 123/43/123 122/44/122 127/50/127 128/49/128
f 124/45/124 123/43/123 128/49/128 129/51/129
f 125/46/125 124/45/124 129/51/129 130/52/130
f 126/47/126 125/46/125 130/52/130 131/53/131
f 48/48/48 126/47/126 131/53/131 54/54/54
f 128/49/128 127/50/127 132/56/132 133/55/133
f 129/51/129 128/49/128 133/55/133 134/57/134
f 130/52/130 129/51/129 134/57/134 135/58/135
f 131/53/131 130/52/130 135/58/135 136/59/136
f 54/54/54 131/53/131 136/59/136 60/60/60
f 133/55/133 132/56/132 137/62/137 138/61/138
f 134/57/134 133/55/133 138/61/138 139/63/139
f 135/58/135 134/57/134 139/63/139 140/64/140
f 136/59/136 135/58/135 140/64/140 141/65/141
f 60/60/60 136/59/136 141/65/141 66/66/66
f 138/61/138 137/62/137 142/68/142 143/67/143
f 139/63/139 138/61/138 143/67/143 144/69/144
f 140/64/140 139/63/139 144/69/144 145/70/145
f 141/65/141 140/64/140 145/70/145 146/71/146
f 66/72/66 141/76/141 146/75/146 76/74/73 81/73/72
f 143/67/143 142/68/142 147/78/147 148/77/148
f 144/69/144 143/67/143 148/77/148 149/79/149
f 145/70/145 144/69/144 149/79/149 150/80/150
f 146/71/146 145/70/145 150/80/150 76/81/73
f 148/77/148 147/78/147 77/83/79 151/82/151
f 149/79/149 148/77/148 151/82/151 152/84/152
f 150/80/150 149/79/149 152/84/152 153/85/153
f 76/81/73 150/80/150 153/85/153 81/86/72
f 77/87/79 81/91/72 153/90/153 152/89/152 151/88/151
