# Blender 4.4.3
# www.blender.org
mtllib mystery_circle.mtl
o Cylinder
v -0.000000 0.066724 -4.430895
v 0.000000 0.171996 -0.380364
v 0.864425 0.066724 -4.345757
v 0.074205 0.171996 -0.373056
v 1.695630 0.066724 -4.093613
v 0.145559 0.171996 -0.351411
v 2.461673 0.066724 -3.684155
v 0.211319 0.171996 -0.316261
v 3.133116 0.066724 -3.133116
v 0.268958 0.171996 -0.268958
v 3.684155 0.066724 -2.461673
v 0.316261 0.171996 -0.211319
v 4.093613 0.066724 -1.695630
v 0.351411 0.171996 -0.145559
v 4.345757 0.066724 -0.864425
v 0.373056 0.171996 -0.074205
v 4.430895 0.066724 0.000000
v 0.380364 0.171996 -0.000000
v 4.345757 0.066724 0.864425
v 0.373056 0.171996 0.074205
v 4.093613 0.066724 1.695630
v 0.351411 0.171996 0.145559
v 3.684155 0.066724 2.461673
v 0.316261 0.171996 0.211319
v 3.133116 0.066724 3.133116
v 0.268958 0.171996 0.268958
v 2.461673 0.066724 3.684155
v 0.211319 0.171996 0.316261
v 1.695630 0.066724 4.093613
v 0.145559 0.171996 0.351411
v 0.864425 0.066724 4.345757
v 0.074205 0.171996 0.373056
v -0.000000 0.066724 4.430895
v 0.000000 0.171996 0.380364
v -0.864425 0.066724 4.345757
v -0.074205 0.171996 0.373056
v -1.695630 0.066724 4.093613
v -0.145559 0.171996 0.351411
v -2.461673 0.066724 3.684155
v -0.211319 0.171996 0.316261
v -3.133116 0.066724 3.133116
v -0.268958 0.171996 0.268958
v -3.684155 0.066724 2.461673
v -0.316261 0.171996 0.211319
v -4.093613 0.066724 1.695630
v -0.351411 0.171996 0.145559
v -4.345757 0.066724 0.864425
v -0.373056 0.171996 0.074205
v -4.430895 0.066724 0.000000
v -0.380364 0.171996 -0.000000
v -4.345757 0.066724 -0.864425
v -0.373056 0.171996 -0.074205
v -4.093613 0.066724 -1.695630
v -0.351411 0.171996 -0.145559
v -3.684155 0.066724 -2.461673
v -0.316261 0.171996 -0.211319
v -3.133116 0.066724 -3.133116
v -0.268958 0.171996 -0.268958
v -2.461673 0.066724 -3.684155
v -0.211319 0.171996 -0.316261
v -1.695630 0.066724 -4.093613
v -0.145559 0.171996 -0.351411
v -0.864425 0.066724 -4.345757
v -0.074205 0.171996 -0.373056
v 0.009279 0.368085 -0.945965
v 0.191139 0.368085 -0.928054
v 0.366010 0.368085 -0.875007
v 0.527172 0.368085 -0.788864
v 0.668432 0.368085 -0.672935
v 0.784361 0.368085 -0.531676
v 0.870504 0.368085 -0.370513
v 0.923550 0.368085 -0.195642
v 0.941462 0.368085 -0.013782
v 0.923550 0.368085 0.168078
v 0.870504 0.368085 0.342949
v 0.784361 0.368085 0.504111
v 0.668432 0.368085 0.645371
v 0.527172 0.368085 0.761300
v 0.366010 0.368085 0.847443
v 0.191139 0.368085 0.900489
v 0.009279 0.368085 0.918401
v -0.172581 0.368085 0.900489
v -0.347452 0.368085 0.847443
v -0.508614 0.368085 0.761300
v -0.649874 0.368085 0.645371
v -0.765803 0.368085 0.504111
v -0.851946 0.368085 0.342949
v -0.904993 0.368085 0.168078
v -0.922904 0.368085 -0.013782
v -0.904993 0.368085 -0.195642
v -0.851946 0.368085 -0.370513
v -0.765803 0.368085 -0.531676
v -0.649874 0.368085 -0.672935
v -0.508614 0.368085 -0.788864
v -0.347452 0.368085 -0.875007
v -0.172581 0.368085 -0.928054
v 0.009279 0.084749 -1.529299
v 0.304942 0.084749 -1.500179
v 0.589242 0.084749 -1.413937
v 0.851255 0.084749 -1.273888
v 1.080911 0.084749 -1.085414
v 1.269385 0.084749 -0.855758
v 1.409433 0.084749 -0.593745
v 1.495675 0.084749 -0.309445
v 1.524796 0.084749 -0.013782
v 1.495675 0.084749 0.281880
v 1.409433 0.084749 0.566181
v 1.269385 0.084749 0.828194
v 1.080911 0.084749 1.057850
v 0.851255 0.084749 1.246324
v 0.589242 0.084749 1.386373
v 0.304942 0.084749 1.472614
v 0.009279 0.084749 1.501735
v -0.286384 0.084749 1.472614
v -0.570684 0.084749 1.386373
v -0.832697 0.084749 1.246324
v -1.062353 0.084749 1.057850
v -1.250827 0.084749 0.828194
v -1.390876 0.084749 0.566181
v -1.477118 0.084749 0.281880
v -1.506238 0.084749 -0.013782
v -1.477118 0.084749 -0.309445
v -1.390876 0.084749 -0.593745
v -1.250827 0.084749 -0.855758
v -1.062353 0.084749 -1.085414
v -0.832697 0.084749 -1.273888
v -0.570684 0.084749 -1.413937
v -0.286384 0.084749 -1.500179
vn 0.0026 0.9997 -0.0260
vn 0.0076 0.9997 -0.0250
vn 0.0123 0.9997 -0.0230
vn 0.0166 0.9997 -0.0202
vn 0.0202 0.9997 -0.0166
vn 0.0230 0.9997 -0.0123
vn 0.0250 0.9997 -0.0076
vn 0.0260 0.9997 -0.0026
vn 0.0260 0.9997 0.0026
vn 0.0250 0.9997 0.0076
vn 0.0230 0.9997 0.0123
vn 0.0202 0.9997 0.0166
vn 0.0166 0.9997 0.0202
vn 0.0123 0.9997 0.0230
vn 0.0076 0.9997 0.0250
vn 0.0026 0.9997 0.0260
vn -0.0026 0.9997 0.0260
vn -0.0076 0.9997 0.0250
vn -0.0123 0.9997 0.0230
vn -0.0166 0.9997 0.0202
vn -0.0202 0.9997 0.0166
vn -0.0230 0.9997 0.0123
vn -0.0250 0.9997 0.0076
vn -0.0260 0.9997 0.0026
vn -0.0260 0.9997 -0.0026
vn -0.0250 0.9997 -0.0076
vn -0.0230 0.9997 -0.0123
vn -0.0202 0.9997 -0.0166
vn -0.0166 0.9997 -0.0202
vn -0.0123 0.9997 -0.0230
vn -0.0076 0.9997 -0.0250
vn -0.0026 0.9997 -0.0260
vn 0.2534 -0.9447 -0.2080
vn 0.1605 -0.9402 0.3003
vn -0.3286 -0.9392 0.0997
vn -0.0323 -0.9442 -0.3279
vn 0.0322 -0.9445 -0.3269
vn 0.3193 -0.9427 0.0969
vn -0.1629 -0.9384 0.3047
vn -0.2593 -0.9421 -0.2128
vn 0.2897 -0.9445 -0.1548
vn 0.0993 -0.9397 0.3273
vn -0.3405 -0.9397 0.0335
vn 0.0952 -0.9447 -0.3137
vn 0.2958 -0.9421 0.1581
vn -0.2192 -0.9384 0.2671
vn -0.2117 -0.9427 -0.2580
vn 0.3152 -0.9442 -0.0956
vn 0.0337 -0.9392 0.3417
vn -0.3390 -0.9402 -0.0334
vn 0.1544 -0.9448 -0.2888
vn 0.2606 -0.9415 0.2139
vn -0.2668 -0.9386 0.2189
vn -0.1565 -0.9432 -0.2929
vn 0.3290 -0.9438 -0.0324
vn -0.0338 -0.9388 0.3427
vn -0.3243 -0.9408 -0.0984
vn 0.2078 -0.9448 -0.2532
vn 0.2150 -0.9408 0.2620
vn -0.3038 -0.9388 0.1624
vn -0.0960 -0.9437 -0.3164
vn 0.3304 -0.9433 0.0325
vn -0.1002 -0.9386 0.3303
vn -0.2974 -0.9414 -0.1590
vn 0.1273 -0.8987 0.4197
vn -0.0000 1.0000 -0.0000
vn 0.1273 -0.8987 -0.4197
vn -0.3391 -0.8987 0.2783
vn 0.0430 -0.8987 0.4365
vn 0.2068 -0.8987 -0.3868
vn -0.3868 -0.8987 0.2068
vn 0.2783 -0.8987 -0.3391
vn -0.4197 -0.8987 0.1273
vn 0.3391 -0.8987 -0.2783
vn -0.4365 -0.8987 0.0430
vn 0.3868 -0.8987 -0.2068
vn -0.4365 -0.8987 -0.0430
vn 0.4197 -0.8987 -0.1273
vn -0.4197 -0.8987 -0.1273
vn 0.4365 -0.8987 -0.0430
vn -0.3868 -0.8987 -0.2068
vn 0.4365 -0.8987 0.0430
vn -0.3391 -0.8987 -0.2783
vn 0.4197 -0.8987 0.1273
vn -0.2783 -0.8987 -0.3391
vn 0.3868 -0.8987 0.2068
vn -0.2068 -0.8987 -0.3868
vn -0.0430 -0.8987 0.4365
vn 0.3391 -0.8987 0.2783
vn -0.1273 -0.8987 -0.4197
vn -0.1273 -0.8987 0.4197
vn 0.2783 -0.8987 0.3391
vn -0.0430 -0.8987 -0.4365
vn -0.2068 -0.8987 0.3868
vn 0.2068 -0.8987 0.3868
vn 0.0430 -0.8987 -0.4365
vn -0.2783 -0.8987 0.3391
vt 1.000000 0.000000
vt 1.000000 1.000000
vt 0.968750 1.000000
vt 0.968750 0.000000
vt 0.937500 1.000000
vt 0.937500 0.000000
vt 0.906250 1.000000
vt 0.906250 0.000000
vt 0.875000 1.000000
vt 0.875000 0.000000
vt 0.843750 1.000000
vt 0.843750 0.000000
vt 0.812500 1.000000
vt 0.812500 0.000000
vt 0.781250 1.000000
vt 0.781250 0.000000
vt 0.750000 1.000000
vt 0.750000 0.000000
vt 0.718750 1.000000
vt 0.718750 0.000000
vt 0.687500 1.000000
vt 0.687500 0.000000
vt 0.656250 1.000000
vt 0.656250 0.000000
vt 0.625000 1.000000
vt 0.625000 0.000000
vt 0.593750 1.000000
vt 0.593750 0.000000
vt 0.562500 1.000000
vt 0.562500 0.000000
vt 0.531250 1.000000
vt 0.531250 0.000000
vt 0.500000 1.000000
vt 0.500000 0.000000
vt 0.468750 1.000000
vt 0.468750 0.000000
vt 0.437500 1.000000
vt 0.437500 0.000000
vt 0.406250 1.000000
vt 0.406250 0.000000
vt 0.375000 1.000000
vt 0.375000 0.000000
vt 0.343750 1.000000
vt 0.343750 0.000000
vt 0.312500 1.000000
vt 0.312500 0.000000
vt 0.281250 1.000000
vt 0.281250 0.000000
vt 0.250000 1.000000
vt 0.250000 0.000000
vt 0.218750 1.000000
vt 0.218750 0.000000
vt 0.187500 1.000000
vt 0.187500 0.000000
vt 0.156250 1.000000
vt 0.156250 0.000000
vt 0.125000 1.000000
vt 0.125000 0.000000
vt 0.093750 1.000000
vt 0.093750 0.000000
vt 0.062500 1.000000
vt 0.062500 0.000000
vt 0.031250 1.000000
vt 0.031250 0.000000
vt 0.000000 1.000000
vt 0.000000 0.000000
s 0
f 1/1/1 2/2/1 4/3/1 3/4/1
f 3/4/2 4/3/2 6/5/2 5/6/2
f 5/6/3 6/5/3 8/7/3 7/8/3
f 7/8/4 8/7/4 10/9/4 9/10/4
f 9/10/5 10/9/5 12/11/5 11/12/5
f 11/12/6 12/11/6 14/13/6 13/14/6
f 13/14/7 14/13/7 16/15/7 15/16/7
f 15/16/8 16/15/8 18/17/8 17/18/8
f 17/18/9 18/17/9 20/19/9 19/20/9
f 19/20/10 20/19/10 22/21/10 21/22/10
f 21/22/11 22/21/11 24/23/11 23/24/11
f 23/24/12 24/23/12 26/25/12 25/26/12
f 25/26/13 26/25/13 28/27/13 27/28/13
f 27/28/14 28/27/14 30/29/14 29/30/14
f 29/30/15 30/29/15 32/31/15 31/32/15
f 31/32/16 32/31/16 34/33/16 33/34/16
f 33/34/17 34/33/17 36/35/17 35/36/17
f 35/36/18 36/35/18 38/37/18 37/38/18
f 37/38/19 38/37/19 40/39/19 39/40/19
f 39/40/20 40/39/20 42/41/20 41/42/20
f 41/42/21 42/41/21 44/43/21 43/44/21
f 43/44/22 44/43/22 46/45/22 45/46/22
f 45/46/23 46/45/23 48/47/23 47/48/23
f 47/48/24 48/47/24 50/49/24 49/50/24
f 49/50/25 50/49/25 52/51/25 51/52/25
f 51/52/26 52/51/26 54/53/26 53/54/26
f 53/54/27 54/53/27 56/55/27 55/56/27
f 55/56/28 56/55/28 58/57/28 57/58/28
f 57/58/29 58/57/29 60/59/29 59/60/29
f 59/60/30 60/59/30 62/61/30 61/62/30
f 61/62/31 62/61/31 64/63/31 63/64/31
f 63/64/32 64/63/32 2/65/32 1/66/32
f 12/11/33 10/9/33 69/9/33 70/11/33
f 30/29/34 28/27/34 78/27/34 79/29/34
f 48/47/35 46/45/35 87/45/35 88/47/35
f 2/65/36 64/63/36 96/63/36 65/65/36
f 4/3/37 2/2/37 65/2/37 66/3/37
f 22/21/38 20/19/38 74/19/38 75/21/38
f 40/39/39 38/37/39 83/37/39 84/39/39
f 58/57/40 56/55/40 92/55/40 93/57/40
f 14/13/41 12/11/41 70/11/41 71/13/41
f 32/31/42 30/29/42 79/29/42 80/31/42
f 50/49/43 48/47/43 88/47/43 89/49/43
f 6/5/44 4/3/44 66/3/44 67/5/44
f 24/23/45 22/21/45 75/21/45 76/23/45
f 42/41/46 40/39/46 84/39/46 85/41/46
f 60/59/47 58/57/47 93/57/47 94/59/47
f 16/15/48 14/13/48 71/13/48 72/15/48
f 34/33/49 32/31/49 80/31/49 81/33/49
f 52/51/50 50/49/50 89/49/50 90/51/50
f 8/7/51 6/5/51 67/5/51 68/7/51
f 26/25/52 24/23/52 76/23/52 77/25/52
f 44/43/53 42/41/53 85/41/53 86/43/53
f 62/61/54 60/59/54 94/59/54 95/61/54
f 18/17/55 16/15/55 72/15/55 73/17/55
f 36/35/56 34/33/56 81/33/56 82/35/56
f 54/53/57 52/51/57 90/51/57 91/53/57
f 10/9/58 8/7/58 68/7/58 69/9/58
f 28/27/59 26/25/59 77/25/59 78/27/59
f 46/45/60 44/43/60 86/43/60 87/45/60
f 64/63/61 62/61/61 95/61/61 96/63/61
f 20/19/62 18/17/62 73/17/62 74/19/62
f 38/37/63 36/35/63 82/35/63 83/37/63
f 56/55/64 54/53/64 91/53/64 92/55/64
f 96/63/65 95/61/65 127/61/65 128/63/65
f 97/65/66 128/63/66 127/61/66 126/59/66 125/57/66 124/55/66 123/53/66 122/51/66 121/49/66 120/47/66 119/45/66 118/43/66 117/41/66 116/39/66 115/37/66 114/35/66 113/33/66 112/31/66 111/29/66 110/27/66 109/25/66 108/23/66 107/21/66 106/19/66 105/17/66 104/15/66 103/13/66 102/11/66 101/9/66 100/7/66 99/5/66 98/3/66
f 83/37/67 82/35/67 114/35/67 115/37/67
f 70/11/68 69/9/68 101/9/68 102/11/68
f 65/65/69 96/63/69 128/63/69 97/65/69
f 84/39/70 83/37/70 115/37/70 116/39/70
f 71/13/71 70/11/71 102/11/71 103/13/71
f 85/41/72 84/39/72 116/39/72 117/41/72
f 72/15/73 71/13/73 103/13/73 104/15/73
f 86/43/74 85/41/74 117/41/74 118/43/74
f 73/17/75 72/15/75 104/15/75 105/17/75
f 87/45/76 86/43/76 118/43/76 119/45/76
f 74/19/77 73/17/77 105/17/77 106/19/77
f 88/47/78 87/45/78 119/45/78 120/47/78
f 75/21/79 74/19/79 106/19/79 107/21/79
f 89/49/80 88/47/80 120/47/80 121/49/80
f 76/23/81 75/21/81 107/21/81 108/23/81
f 90/51/82 89/49/82 121/49/82 122/51/82
f 77/25/83 76/23/83 108/23/83 109/25/83
f 91/53/84 90/51/84 122/51/84 123/53/84
f 78/27/85 77/25/85 109/25/85 110/27/85
f 92/55/86 91/53/86 123/53/86 124/55/86
f 79/29/87 78/27/87 110/27/87 111/29/87
f 66/3/88 65/2/88 97/2/88 98/3/88
f 93/57/89 92/55/89 124/55/89 125/57/89
f 80/31/90 79/29/90 111/29/90 112/31/90
f 67/5/91 66/3/91 98/3/91 99/5/91
f 94/59/92 93/57/92 125/57/92 126/59/92
f 81/33/93 80/31/93 112/31/93 113/33/93
f 68/7/94 67/5/94 99/5/94 100/7/94
f 95/61/95 94/59/95 126/59/95 127/61/95
f 82/35/96 81/33/96 113/33/96 114/35/96
f 69/9/97 68/7/97 100/7/97 101/9/97
