# Blender 4.4.3
# www.blender.org
mtllib rio_w_circle.mtl
o Torus
v 1.866784 -0.000000 -0.000000
v 1.608801 0.035508 -0.000000
v 1.191375 0.021945 -0.000000
v 1.191375 -0.021945 -0.000000
v 1.608801 -0.035508 -0.000000
v 1.510260 -0.000000 -1.097268
v 1.301547 0.035508 -0.945630
v 0.963843 0.021945 -0.700273
v 0.963843 -0.021945 -0.700273
v 1.301547 -0.035508 -0.945630
v 0.576868 -0.000000 -1.775417
v 0.497147 0.035508 -1.530061
v 0.368155 0.021945 -1.133065
v 0.368155 -0.021945 -1.133065
v 0.497147 -0.035508 -1.530061
v -0.576868 -0.000000 -1.775417
v -0.497147 0.035508 -1.530061
v -0.368155 0.021945 -1.133065
v -0.368155 -0.021945 -1.133065
v -0.497147 -0.035508 -1.530061
v -1.510260 -0.000000 -1.097268
v -1.301548 0.035508 -0.945629
v -0.963843 0.021945 -0.700273
v -0.963843 -0.021945 -0.700273
v -1.301548 -0.035508 -0.945629
v -1.866784 -0.000000 -0.000000
v -1.608801 0.035508 -0.000000
v -1.191375 0.021945 -0.000000
v -1.191375 -0.021945 -0.000000
v -1.608801 -0.035508 -0.000000
v -1.510260 -0.000000 1.097268
v -1.301548 0.035508 0.945629
v -0.963843 0.021945 0.700273
v -0.963843 -0.021945 0.700273
v -1.301548 -0.035508 0.945629
v -0.576868 -0.000000 1.775417
v -0.497147 0.035508 1.530061
v -0.368155 0.021945 1.133065
v -0.368155 -0.021945 1.133065
v -0.497147 -0.035508 1.530061
v 0.576868 -0.000000 1.775417
v 0.497147 0.035508 1.530061
v 0.368155 0.021945 1.133065
v 0.368155 -0.021945 1.133065
v 0.497147 -0.035508 1.530061
v 1.510260 -0.000000 1.097269
v 1.301547 0.035508 0.945630
v 0.963843 0.021945 0.700273
v 0.963843 -0.021945 0.700273
v 1.301547 -0.035508 0.945630
vn 0.1362 0.9897 -0.0443
vn -0.0325 0.9994 0.0106
vn -0.9511 -0.0000 0.3090
vn -0.0325 -0.9994 0.0106
vn 0.1362 -0.9897 -0.0443
vn 0.0842 0.9897 -0.1159
vn -0.0201 0.9994 0.0276
vn -0.5878 -0.0000 0.8090
vn -0.0201 -0.9994 0.0276
vn 0.0842 -0.9897 -0.1159
vn -0.0000 0.9897 -0.1432
vn -0.0000 0.9994 0.0341
vn -0.0000 -0.0000 1.0000
vn -0.0000 -0.9994 0.0341
vn -0.0000 -0.9897 -0.1432
vn -0.0842 0.9897 -0.1159
vn 0.0201 0.9994 0.0276
vn 0.5878 -0.0000 0.8090
vn 0.0201 -0.9994 0.0276
vn -0.0842 -0.9897 -0.1159
vn -0.1362 0.9897 -0.0443
vn 0.0325 0.9994 0.0106
vn 0.9511 -0.0000 0.3090
vn 0.0325 -0.9994 0.0106
vn -0.1362 -0.9897 -0.0443
vn -0.1362 0.9897 0.0443
vn 0.0325 0.9994 -0.0106
vn 0.9511 -0.0000 -0.3090
vn 0.0325 -0.9994 -0.0106
vn -0.1362 -0.9897 0.0443
vn -0.0842 0.9897 0.1159
vn 0.0201 0.9994 -0.0276
vn 0.5878 -0.0000 -0.8090
vn 0.0201 -0.9994 -0.0276
vn -0.0842 -0.9897 0.1159
vn -0.0000 0.9897 0.1432
vn -0.0000 0.9994 -0.0341
vn -0.0000 -0.0000 -1.0000
vn -0.0000 -0.9994 -0.0341
vn -0.0000 -0.9897 0.1432
vn 0.0842 0.9897 0.1159
vn -0.0201 0.9994 -0.0276
vn -0.5878 -0.0000 -0.8090
vn -0.0201 -0.9994 -0.0276
vn 0.0842 -0.9897 0.1159
vn 0.1362 0.9897 0.0443
vn -0.0325 0.9994 -0.0106
vn -0.9511 -0.0000 -0.3090
vn -0.0325 -0.9994 -0.0106
vn 0.1362 -0.9897 0.0443
vt 0.599980 0.599980
vt 0.699960 0.599980
vt 0.699960 0.799940
vt 0.599980 0.799940
vt 0.699960 0.999900
vt 0.599980 0.999900
vt 0.599980 0.000100
vt 0.699960 0.000100
vt 0.699960 0.200060
vt 0.599980 0.200060
vt 0.699960 0.400020
vt 0.599980 0.400020
vt 0.799940 0.599980
vt 0.799940 0.799940
vt 0.799940 0.999900
vt 0.799940 0.000100
vt 0.799940 0.200060
vt 0.799940 0.400020
vt 0.899920 0.599980
vt 0.899920 0.799940
vt 0.899920 0.999900
vt 0.899920 0.000100
vt 0.899920 0.200060
vt 0.899920 0.400020
vt 0.999900 0.599980
vt 0.999900 0.799940
vt 0.999900 0.999900
vt 0.999900 0.000100
vt 0.999900 0.200060
vt 0.999900 0.400020
vt 0.000100 0.599980
vt 0.100080 0.599980
vt 0.100080 0.799940
vt 0.000100 0.799940
vt 0.100080 0.999900
vt 0.000100 0.999900
vt 0.000100 0.000100
vt 0.100080 0.000100
vt 0.100080 0.200060
vt 0.000100 0.200060
vt 0.100080 0.400020
vt 0.000100 0.400020
vt 0.200060 0.599980
vt 0.200060 0.799940
vt 0.200060 0.999900
vt 0.200060 0.000100
vt 0.200060 0.200060
vt 0.200060 0.400020
vt 0.300040 0.599980
vt 0.300040 0.799940
vt 0.300040 0.999900
vt 0.300040 0.000100
vt 0.300040 0.200060
vt 0.300040 0.400020
vt 0.400020 0.599980
vt 0.400020 0.799940
vt 0.400020 0.999900
vt 0.400020 0.000100
vt 0.400020 0.200060
vt 0.400020 0.400020
vt 0.500000 0.599980
vt 0.500000 0.799940
vt 0.500000 0.999900
vt 0.500000 0.000100
vt 0.500000 0.200060
vt 0.500000 0.400020
s 0
f 1/1/1 6/2/1 7/3/1 2/4/1
f 2/4/2 7/3/2 8/5/2 3/6/2
f 3/7/3 8/8/3 9/9/3 4/10/3
f 4/10/4 9/9/4 10/11/4 5/12/4
f 5/12/5 10/11/5 6/2/5 1/1/5
f 6/2/6 11/13/6 12/14/6 7/3/6
f 7/3/7 12/14/7 13/15/7 8/5/7
f 8/8/8 13/16/8 14/17/8 9/9/8
f 9/9/9 14/17/9 15/18/9 10/11/9
f 10/11/10 15/18/10 11/13/10 6/2/10
f 11/13/11 16/19/11 17/20/11 12/14/11
f 12/14/12 17/20/12 18/21/12 13/15/12
f 13/16/13 18/22/13 19/23/13 14/17/13
f 14/17/14 19/23/14 20/24/14 15/18/14
f 15/18/15 20/24/15 16/19/15 11/13/15
f 16/19/16 21/25/16 22/26/16 17/20/16
f 17/20/17 22/26/17 23/27/17 18/21/17
f 18/22/18 23/28/18 24/29/18 19/23/18
f 19/23/19 24/29/19 25/30/19 20/24/19
f 20/24/20 25/30/20 21/25/20 16/19/20
f 21/31/21 26/32/21 27/33/21 22/34/21
f 22/34/22 27/33/22 28/35/22 23/36/22
f 23/37/23 28/38/23 29/39/23 24/40/23
f 24/40/24 29/39/24 30/41/24 25/42/24
f 25/42/25 30/41/25 26/32/25 21/31/25
f 26/32/26 31/43/26 32/44/26 27/33/26
f 27/33/27 32/44/27 33/45/27 28/35/27
f 28/38/28 33/46/28 34/47/28 29/39/28
f 29/39/29 34/47/29 35/48/29 30/41/29
f 30/41/30 35/48/30 31/43/30 26/32/30
f 31/43/31 36/49/31 37/50/31 32/44/31
f 32/44/32 37/50/32 38/51/32 33/45/32
f 33/46/33 38/52/33 39/53/33 34/47/33
f 34/47/34 39/53/34 40/54/34 35/48/34
f 35/48/35 40/54/35 36/49/35 31/43/35
f 36/49/36 41/55/36 42/56/36 37/50/36
f 37/50/37 42/56/37 43/57/37 38/51/37
f 38/52/38 43/58/38 44/59/38 39/53/38
f 39/53/39 44/59/39 45/60/39 40/54/39
f 40/54/40 45/60/40 41/55/40 36/49/40
f 41/55/41 46/61/41 47/62/41 42/56/41
f 42/56/42 47/62/42 48/63/42 43/57/42
f 43/58/43 48/64/43 49/65/43 44/59/43
f 44/59/44 49/65/44 50/66/44 45/60/44
f 45/60/45 50/66/45 46/61/45 41/55/45
f 46/61/46 1/1/46 2/4/46 47/62/46
f 47/62/47 2/4/47 3/6/47 48/63/47
f 48/64/48 3/7/48 4/10/48 49/65/48
f 49/65/49 4/10/49 5/12/49 50/66/49
f 50/66/50 5/12/50 1/1/50 46/61/50
