# Blender 4.4.3
# www.blender.org
mtllib thunder_only_mesh.mtl
o mesh
v -1.122564 0.000000 1.122564
v 1.122564 0.000000 1.122564
v -1.122564 -0.000000 -1.122564
v 1.122564 -0.000000 -1.122564
v -0.975054 -0.019983 0.083067
v 1.115450 -0.019983 0.061012
v 0.289543 15.423973 2.226319
v 2.096380 15.423973 1.161076
v 0.557301 14.458726 2.254310
v 0.873296 13.493479 1.913522
v 1.078593 12.528231 1.504763
v 1.013071 11.562984 1.213648
v 0.728923 10.597737 1.186608
v 0.123148 9.632488 1.341672
v -1.131849 8.667241 1.487025
v -2.337748 7.701996 1.363980
v -3.140656 6.736747 1.172765
v -3.512332 5.771499 0.943926
v -3.248268 4.806252 0.745138
v -2.414588 3.841004 0.572083
v -1.213981 2.875756 0.395553
v -0.516792 1.910507 0.250469
v -0.723715 0.945264 0.159392
v 1.608734 0.945264 0.084071
v 2.162345 1.910507 0.080181
v 2.116256 2.875756 0.110818
v 1.159075 3.841003 0.293797
v 0.017545 4.806252 0.570384
v -0.448450 5.771499 0.783109
v -0.214210 6.736747 0.883948
v 0.595960 7.701994 0.808590
v 1.856439 8.667240 0.336712
v 2.571416 9.632488 -0.150873
v 2.991411 10.597736 -0.619473
v 3.066890 11.562984 -0.919342
v 2.731813 12.528230 -0.868649
v 2.442681 13.493479 -0.306574
v 2.073256 14.458726 0.467152
vn 0.7045 -0.1356 0.6967
vn 0.7453 -0.1063 0.6582
vn 0.6411 -0.1764 0.7469
vn 0.0220 -0.0599 0.9980
vn 0.0396 -0.0627 0.9972
vn 0.0335 -0.0617 0.9975
vn 0.0645 -0.0627 0.9959
vn 0.0635 -0.0628 0.9960
vn 0.0772 -0.0723 0.9944
vn 0.0794 -0.0853 0.9932
vn 0.0773 -0.1101 0.9909
vn 0.0688 -0.1471 0.9867
vn 0.0611 -0.1710 0.9834
vn 0.0562 -0.1809 0.9819
vn 0.0621 -0.1898 0.9799
vn 0.0624 -0.1898 0.9798
vn 0.1155 -0.1813 0.9766
vn 0.0951 -0.1857 0.9780
vn 0.2386 -0.1771 0.9548
vn 0.1733 -0.1764 0.9690
vn 0.3990 -0.1559 0.9036
vn 0.3097 -0.1713 0.9353
vn 0.5351 -0.0715 0.8417
vn 0.4765 -0.1171 0.8713
vn 0.6393 -0.0280 0.7684
vn 0.6142 -0.0327 0.7885
vn 0.7250 -0.0129 0.6886
vn 0.7248 -0.0130 0.6889
vn 0.7889 -0.0312 0.6137
vn 0.7994 -0.0489 0.5988
vn 0.8089 -0.0766 0.5829
vn 0.7998 -0.0737 0.5957
vt 0.000000 0.937500
vt 1.000000 0.937500
vt 1.000000 1.000000
vt 0.000000 1.000000
vt 0.000000 0.000000
vt 1.000000 0.000000
vt 1.000000 0.062500
vt 0.000000 0.062500
vt 1.000000 0.125000
vt 0.000000 0.125000
vt 1.000000 0.187500
vt 0.000000 0.187500
vt 1.000000 0.250000
vt 0.000000 0.250000
vt 1.000000 0.312500
vt 0.000000 0.312500
vt 1.000000 0.375000
vt 0.000000 0.375000
vt 1.000000 0.437500
vt 0.000000 0.437500
vt 1.000000 0.500000
vt 0.000000 0.500000
vt 1.000000 0.562500
vt 0.000000 0.562500
vt 1.000000 0.625000
vt 0.000000 0.625000
vt 1.000000 0.687500
vt 0.000000 0.687500
vt 1.000000 0.750000
vt 0.000000 0.750000
vt 1.000000 0.812500
vt 0.000000 0.812500
vt 1.000000 0.875000
vt 0.000000 0.875000
s 1
usemtl Material.002
f 9/1/1 38/2/2 8/3/3 7/4/3
f 5/5/4 6/6/4 24/7/5 23/8/6
f 23/8/6 24/7/5 25/9/7 22/10/8
f 22/10/8 25/9/7 26/11/9 21/12/10
f 21/12/10 26/11/9 27/13/11 20/14/12
f 20/14/12 27/13/11 28/15/13 19/16/14
f 19/16/14 28/15/13 29/17/15 18/18/16
f 18/18/16 29/17/15 30/19/17 17/20/18
f 17/20/18 30/19/17 31/21/19 16/22/20
f 16/22/20 31/21/19 32/23/21 15/24/22
f 15/24/22 32/23/21 33/25/23 14/26/24
f 14/26/24 33/25/23 34/27/25 13/28/26
f 13/28/26 34/27/25 35/29/27 12/30/28
f 12/30/28 35/29/27 36/31/29 11/32/30
f 11/32/30 36/31/29 37/33/31 10/34/32
f 10/34/32 37/33/31 38/2/2 9/1/1
